# xmcd
#
# Track frame offsets: 
#        150
#        23826
#        39639
#        62754
#        82429
#        100547
#        131022
#        157615
#        171023
#        211311
#        232164
#        250198
#        275577
#
# Disc length: 4066 seconds
#
# Revision: 0
# Processed by: cddbd v1.5.2PL0 Copyright (c) Steve Scherf et al.
# Submitted via: ExactAudioCopy v0.95a5
#
DISCID=af0fe00d
DTITLE=蘇打綠 - 陪我歌唱-小巨蛋Live
DYEAR=2008
DGENRE=Rock
TTITLE0=小宇宙
TTITLE1=暫時失控
TTITLE2=相對論IV
TTITLE3=被雨困住的城市
TTITLE4=記念
TTITLE5=漂浮
TTITLE6=CREEP
TTITLE7=蜘蛛天空
TTITLE8=是我的海
TTITLE9=oh oh oh oh
TTITLE10=藍眼睛
TTITLE11=我只在乎你
TTITLE12=頻率
EXTD=
EXTT0=
EXTT1=
EXTT2=
EXTT3=
EXTT4=
EXTT5=
EXTT6=
EXTT7=
EXTT8=
EXTT9=
EXTT10=
EXTT11=
EXTT12=
PLAYORDER=
